# xmcd
#
# Track frame offsets:
#  150
#  18225
#  28575
#  42000
#  50062
#  62515
#  78075
#  93225
#  106837
#  124800
#  140775
#  151300
#  165825
#  182000
#  195150
#  211025
#
# Disc length: 3007 seconds
#
# Revision: 0
# Processed by: cddbd v1.4PL0 Copyright (c) Steve Scherf et al.
# Submitted via: AltoMP3_Maker 3.0
#
DISCID=bc0bbd10
DTITLE=none - God's Country and Western
DYEAR=1900
DGENRE=
TTITLE0=God Loves Country Music
TTITLE1=Oh Lord I Thank You
TTITLE2=Servant Of All
TTITLE3=If We Walk In The Light
TTITLE4=Draw Me Nearer
TTITLE5=Freely, Freely
TTITLE6=Psalm 5
TTITLE7=From The Rising Of The Sun
TTITLE8=Come Let Us Worship And Bow Down
TTITLE9=Create In Me A Clean Heart (Psalm 51)
TTITLE10=The Christian Life
TTITLE11=Gospel Cannonbal
TTITLE12=The Lesson Is Love
TTITLE13=If God Is For Us
TTITLE14=Our God Reigns
TTITLE15=His Name Is Wonderful
EXTD=
EXTT0=
EXTT1=
EXTT2=
EXTT3=
EXTT4=
EXTT5=
EXTT6=
EXTT7=
EXTT8=
EXTT9=
EXTT10=
EXTT11=
EXTT12=
EXTT13=
EXTT14=
EXTT15=
PLAYORDER=
